<svg xmlns="http://www.w3.org/2000/svg" viewBox="31 42 122 118" width="122" height="118">
  <defs>
    <linearGradient id="fill" x1="0%" y1="0%" x2="100%" y2="100%">
      <stop offset="0%" stop-color="#ff8c38"/>
      <stop offset="50%" stop-color="#e8630a"/>
      <stop offset="100%" stop-color="#b34d08"/>
    </linearGradient>
    <filter id="glo">
      <feGaussianBlur stdDeviation="3" result="b"/>
      <feColorMatrix in="b" type="matrix" values="1 0.3 0 0 0  0.3 0.1 0 0 0  0 0 0 0 0  0 0 0 0.4 0" result="glow"/>
      <feMerge>
        <feMergeNode in="glow"/>
        <feMergeNode in="SourceGraphic"/>
      </feMerge>
    </filter>
  </defs>
  <g filter="url(#glo)">
    <g transform="translate(91.6, 68) scale(0.8)">
      <path d="M -65 0 C -65 -6, -55 -10, -42 -10 L -42 -28 L 30 -28 L 30 -18 L 48 -18 L 48 18 L 30 18 L 30 28 L -42 28 L -42 10 C -55 10, -65 6, -65 0 Z" fill="url(#fill)"/>
    </g>
    <g transform="translate(100, 128)">
      <path d="M -65 0 C -65 -6, -55 -10, -42 -10 L -42 -28 L 30 -28 L 30 -18 L 48 -18 L 48 18 L 30 18 L 30 28 L -42 28 L -42 10 C -55 10, -65 6, -65 0 Z" fill="url(#fill)"/>
    </g>
  </g>
</svg>
